<svg xmlns="http://www.w3.org/2000/svg" xmlns:xlink="http://www.w3.org/1999/xlink" width="2000" zoomAndPan="magnify" viewBox="0 0 1500 1499.999933" height="2000" preserveAspectRatio="xMidYMid meet" version="1.0"><defs><clipPath id="6d8bf05b1a"><path d="M 214.9375 283.929688 L 1286 283.929688 L 1286 884.285156 L 214.9375 884.285156 Z M 214.9375 283.929688 " clip-rule="nonzero"/></clipPath><clipPath id="5724b80e20"><path d="M 285.4375 283.929688 L 1214.550781 283.929688 C 1253.488281 283.929688 1285.050781 315.492188 1285.050781 354.429688 L 1285.050781 813.785156 C 1285.050781 852.722656 1253.488281 884.285156 1214.550781 884.285156 L 285.4375 884.285156 C 246.503906 884.285156 214.9375 852.722656 214.9375 813.785156 L 214.9375 354.429688 C 214.9375 315.492188 246.503906 283.929688 285.4375 283.929688 Z M 285.4375 283.929688 " clip-rule="nonzero"/></clipPath><clipPath id="f6ecfdd1fe"><path d="M 0.9375 0.929688 L 1071 0.929688 L 1071 601.285156 L 0.9375 601.285156 Z M 0.9375 0.929688 " clip-rule="nonzero"/></clipPath><clipPath id="fdfe8e9eaa"><path d="M 71.4375 0.929688 L 1000.550781 0.929688 C 1039.488281 0.929688 1071.050781 32.492188 1071.050781 71.429688 L 1071.050781 530.785156 C 1071.050781 569.722656 1039.488281 601.285156 1000.550781 601.285156 L 71.4375 601.285156 C 32.503906 601.285156 0.9375 569.722656 0.9375 530.785156 L 0.9375 71.429688 C 0.9375 32.492188 32.503906 0.929688 71.4375 0.929688 Z M 71.4375 0.929688 " clip-rule="nonzero"/></clipPath><clipPath id="23c7aba3a8"><rect x="0" width="1072" y="0" height="602"/></clipPath><clipPath id="0c87a22c01"><path d="M 101.390625 557.050781 L 1398.839844 557.050781 L 1398.839844 1216.070312 L 101.390625 1216.070312 Z M 101.390625 557.050781 " clip-rule="nonzero"/></clipPath><clipPath id="5e9e48ad46"><path d="M 171.890625 557.050781 L 1328.109375 557.050781 C 1367.046875 557.050781 1398.609375 588.613281 1398.609375 627.550781 L 1398.609375 1145.570312 C 1398.609375 1184.507812 1367.046875 1216.070312 1328.109375 1216.070312 L 171.890625 1216.070312 C 132.953125 1216.070312 101.390625 1184.507812 101.390625 1145.570312 L 101.390625 627.550781 C 101.390625 588.613281 132.953125 557.050781 171.890625 557.050781 Z M 171.890625 557.050781 " clip-rule="nonzero"/></clipPath><clipPath id="5f4f1a228f"><path d="M 0.390625 0.0507812 L 1297.71875 0.0507812 L 1297.71875 659.070312 L 0.390625 659.070312 Z M 0.390625 0.0507812 " clip-rule="nonzero"/></clipPath><clipPath id="46b9c7b1ed"><path d="M 70.890625 0.0507812 L 1227.109375 0.0507812 C 1266.046875 0.0507812 1297.609375 31.613281 1297.609375 70.550781 L 1297.609375 588.570312 C 1297.609375 627.507812 1266.046875 659.070312 1227.109375 659.070312 L 70.890625 659.070312 C 31.953125 659.070312 0.390625 627.507812 0.390625 588.570312 L 0.390625 70.550781 C 0.390625 31.613281 31.953125 0.0507812 70.890625 0.0507812 Z M 70.890625 0.0507812 " clip-rule="nonzero"/></clipPath><clipPath id="77beb957c3"><rect x="0" width="1298" y="0" height="660"/></clipPath><clipPath id="a64aea40fd"><path d="M 213.886719 424.542969 L 1287 424.542969 L 1287 946.9375 L 213.886719 946.9375 Z M 213.886719 424.542969 " clip-rule="nonzero"/></clipPath><clipPath id="a9d07af7a3"><path d="M 284.386719 424.542969 L 1215.613281 424.542969 C 1254.546875 424.542969 1286.113281 456.109375 1286.113281 495.042969 L 1286.113281 876.4375 C 1286.113281 915.375 1254.546875 946.9375 1215.613281 946.9375 L 284.386719 946.9375 C 245.453125 946.9375 213.886719 915.375 213.886719 876.4375 L 213.886719 495.042969 C 213.886719 456.109375 245.453125 424.542969 284.386719 424.542969 Z M 284.386719 424.542969 " clip-rule="nonzero"/></clipPath><clipPath id="cb6318d893"><path d="M 0.886719 0.542969 L 1073 0.542969 L 1073 522.9375 L 0.886719 522.9375 Z M 0.886719 0.542969 " clip-rule="nonzero"/></clipPath><clipPath id="4b2497f159"><path d="M 71.386719 0.542969 L 1002.613281 0.542969 C 1041.546875 0.542969 1073.113281 32.109375 1073.113281 71.042969 L 1073.113281 452.4375 C 1073.113281 491.375 1041.546875 522.9375 1002.613281 522.9375 L 71.386719 522.9375 C 32.453125 522.9375 0.886719 491.375 0.886719 452.4375 L 0.886719 71.042969 C 0.886719 32.109375 32.453125 0.542969 71.386719 0.542969 Z M 71.386719 0.542969 " clip-rule="nonzero"/></clipPath><clipPath id="67ea4b0ba4"><rect x="0" width="1074" y="0" height="523"/></clipPath><clipPath id="d7dc82bbb0"><path d="M 202.839844 594.328125 L 1297.699219 594.328125 L 1297.699219 1003.503906 L 202.839844 1003.503906 Z M 202.839844 594.328125 " clip-rule="nonzero"/></clipPath><clipPath id="8a7dac6887"><path d="M 273.339844 594.328125 L 1226.660156 594.328125 C 1265.597656 594.328125 1297.160156 625.890625 1297.160156 664.828125 L 1297.160156 933.003906 C 1297.160156 971.9375 1265.597656 1003.503906 1226.660156 1003.503906 L 273.339844 1003.503906 C 234.402344 1003.503906 202.839844 971.9375 202.839844 933.003906 L 202.839844 664.828125 C 202.839844 625.890625 234.402344 594.328125 273.339844 594.328125 Z M 273.339844 594.328125 " clip-rule="nonzero"/></clipPath><clipPath id="e0709635c5"><path d="M 0.839844 0.328125 L 1095.199219 0.328125 L 1095.199219 409.503906 L 0.839844 409.503906 Z M 0.839844 0.328125 " clip-rule="nonzero"/></clipPath><clipPath id="ed50e0f389"><path d="M 71.339844 0.328125 L 1024.660156 0.328125 C 1063.597656 0.328125 1095.160156 31.890625 1095.160156 70.828125 L 1095.160156 339.003906 C 1095.160156 377.9375 1063.597656 409.503906 1024.660156 409.503906 L 71.339844 409.503906 C 32.402344 409.503906 0.839844 377.9375 0.839844 339.003906 L 0.839844 70.828125 C 0.839844 31.890625 32.402344 0.328125 71.339844 0.328125 Z M 71.339844 0.328125 " clip-rule="nonzero"/></clipPath><clipPath id="c47cdc0a32"><rect x="0" width="1096" y="0" height="410"/></clipPath><clipPath id="2eea7b004c"><path d="M 641.746094 448.933594 L 857.976562 448.933594 L 857.976562 665.164062 L 641.746094 665.164062 Z M 641.746094 448.933594 " clip-rule="nonzero"/></clipPath><clipPath id="3066411af5"><path d="M 749.863281 448.933594 C 690.152344 448.933594 641.746094 497.339844 641.746094 557.050781 C 641.746094 616.757812 690.152344 665.164062 749.863281 665.164062 C 809.570312 665.164062 857.976562 616.757812 857.976562 557.050781 C 857.976562 497.339844 809.570312 448.933594 749.863281 448.933594 Z M 749.863281 448.933594 " clip-rule="nonzero"/></clipPath><clipPath id="6c140cc541"><path d="M 0.746094 0.933594 L 216.976562 0.933594 L 216.976562 217.164062 L 0.746094 217.164062 Z M 0.746094 0.933594 " clip-rule="nonzero"/></clipPath><clipPath id="58c61848d8"><path d="M 108.863281 0.933594 C 49.152344 0.933594 0.746094 49.339844 0.746094 109.050781 C 0.746094 168.757812 49.152344 217.164062 108.863281 217.164062 C 168.570312 217.164062 216.976562 168.757812 216.976562 109.050781 C 216.976562 49.339844 168.570312 0.933594 108.863281 0.933594 Z M 108.863281 0.933594 " clip-rule="nonzero"/></clipPath><clipPath id="c1df8bdad1"><rect x="0" width="217" y="0" height="218"/></clipPath></defs><g clip-path="url(#6d8bf05b1a)"><g clip-path="url(#5724b80e20)"><g transform="matrix(1, 0, 0, 1, 214, 283)"><g clip-path="url(#23c7aba3a8)"><g clip-path="url(#f6ecfdd1fe)"><g clip-path="url(#fdfe8e9eaa)"><path fill="#ffffff" d="M 0.9375 0.929688 L 1070.324219 0.929688 L 1070.324219 601.285156 L 0.9375 601.285156 Z M 0.9375 0.929688 " fill-opacity="1" fill-rule="nonzero"/></g></g></g></g></g></g><g clip-path="url(#0c87a22c01)"><g clip-path="url(#5e9e48ad46)"><g transform="matrix(1, 0, 0, 1, 101, 557)"><g clip-path="url(#77beb957c3)"><g clip-path="url(#5f4f1a228f)"><g clip-path="url(#46b9c7b1ed)"><path fill="#ffffff" d="M 0.390625 0.0507812 L 1297.839844 0.0507812 L 1297.839844 659.070312 L 0.390625 659.070312 Z M 0.390625 0.0507812 " fill-opacity="1" fill-rule="nonzero"/></g></g></g></g></g></g><g clip-path="url(#a64aea40fd)"><g clip-path="url(#a9d07af7a3)"><g transform="matrix(1, 0, 0, 1, 213, 424)"><g clip-path="url(#67ea4b0ba4)"><g clip-path="url(#cb6318d893)"><g clip-path="url(#4b2497f159)"><path fill="#4f46e5" d="M 0.886719 0.542969 L 1072.203125 0.542969 L 1072.203125 522.9375 L 0.886719 522.9375 Z M 0.886719 0.542969 " fill-opacity="1" fill-rule="nonzero"/></g></g></g></g></g></g><g clip-path="url(#d7dc82bbb0)"><g clip-path="url(#8a7dac6887)"><g transform="matrix(1, 0, 0, 1, 202, 594)"><g clip-path="url(#c47cdc0a32)"><g clip-path="url(#e0709635c5)"><g clip-path="url(#ed50e0f389)"><path fill="#ffffff" d="M 0.839844 0.328125 L 1095.699219 0.328125 L 1095.699219 409.503906 L 0.839844 409.503906 Z M 0.839844 0.328125 " fill-opacity="1" fill-rule="nonzero"/></g></g></g></g></g></g><g clip-path="url(#2eea7b004c)"><g clip-path="url(#3066411af5)"><g transform="matrix(1, 0, 0, 1, 641, 448)"><g clip-path="url(#c1df8bdad1)"><g clip-path="url(#6c140cc541)"><g clip-path="url(#58c61848d8)"><path fill="#4f46e5" d="M 0.746094 0.933594 L 216.976562 0.933594 L 216.976562 217.164062 L 0.746094 217.164062 Z M 0.746094 0.933594 " fill-opacity="1" fill-rule="nonzero"/></g></g></g></g></g></g></svg>